<svg xmlns="http://www.w3.org/2000/svg" viewBox="0 0 433.97 444.02"><defs><style>.cls-1{fill:#1a1a1a;}.cls-2{fill:#ccc;}.cls-3{fill:#fff;}.cls-4,.cls-5{fill:#fbb03b;}.cls-5{stroke:#000;stroke-miterlimit:10;}</style></defs><g id="图层_3" data-name="图层 3"><rect class="cls-1" x="281.57" y="223.49" width="227.32" height="227.32" rx="1.72" transform="translate(-240.82 -123.33) rotate(-10.76)"/><path class="cls-2" d="M484,205.76a.38.38,0,0,1,.45.3L526.24,426a.38.38,0,0,1-.3.45L306,468.24a.38.38,0,0,1-.45-.3L263.76,248a.38.38,0,0,1,.3-.45L484,205.76m-.5-2.64L263.56,244.93a3.06,3.06,0,0,0-2.44,3.58l41.81,219.93a3.06,3.06,0,0,0,3.58,2.44l219.93-41.81a3.06,3.06,0,0,0,2.44-3.58L487.07,205.56A3.06,3.06,0,0,0,483.49,203.12Z" transform="translate(-184.81 -203.07)"/><path class="cls-3" d="M310.43,265.67l2.93,15.44-15.44,2.94L295,268.61l15.44-2.94m.61-.89-17,3.22,3.22,16.94,16.95-3.22Z" transform="translate(-184.81 -203.07)"/><path class="cls-3" d="M331.89,261.59,334.83,277,319.39,280l-2.94-15.44,15.44-2.94m.61-.89-16.94,3.22,3.22,16.94,16.94-3.22Z" transform="translate(-184.81 -203.07)"/><path class="cls-3" d="M353,257.58,355.92,273,340.48,276l-2.94-15.44L353,257.58m.61-.89-16.95,3.22,3.23,16.94,16.94-3.22Z" transform="translate(-184.81 -203.07)"/><path class="cls-3" d="M374.07,253.57,377,269,361.56,272l-2.93-15.44,15.44-2.94m.61-.89-16.95,3.22,3.22,17,16.95-3.23Z" transform="translate(-184.81 -203.07)"/><path class="cls-3" d="M396.29,249.35l2.93,15.44-15.44,2.94-2.93-15.44,15.44-2.94m.61-.9L380,251.68l3.22,16.94,16.95-3.22Z" transform="translate(-184.81 -203.07)"/><path class="cls-3" d="M418.13,245.2l2.94,15.44-15.44,2.93-2.94-15.44,15.44-2.93m.61-.9-16.95,3.22,3.23,17L422,261.25Z" transform="translate(-184.81 -203.07)"/><path class="cls-3" d="M441.48,240.76l2.93,15.44L429,259.14,426,243.7l15.44-2.94m.61-.9-16.95,3.23L428.36,260l16.95-3.22Z" transform="translate(-184.81 -203.07)"/><path class="cls-3" d="M464.45,236.39l2.94,15.44L452,254.77,449,239.33l15.44-2.94m.61-.89-16.95,3.22,3.23,16.95,16.94-3.23Z" transform="translate(-184.81 -203.07)"/><path class="cls-3" d="M315,287.44l2.94,15.44-15.44,2.94-2.94-15.44L315,287.44m.61-.89-16.94,3.22,3.22,16.94,17-3.22Z" transform="translate(-184.81 -203.07)"/><path class="cls-3" d="M336.42,283.36l2.93,15.44-15.44,2.94L321,286.3l15.44-2.94m.61-.89-16.95,3.22,3.22,16.94,16.95-3.22Z" transform="translate(-184.81 -203.07)"/><path class="cls-3" d="M357.51,279.35l2.93,15.44L345,297.73l-2.93-15.44,15.44-2.94m.61-.89-16.95,3.22,3.22,16.95,16.95-3.23Z" transform="translate(-184.81 -203.07)"/><path class="cls-3" d="M378.6,275.34l2.93,15.45-15.44,2.93-2.93-15.44,15.44-2.94m.61-.89-16.95,3.22,3.22,16.95,16.95-3.22Z" transform="translate(-184.81 -203.07)"/><path class="cls-3" d="M400.82,271.12l2.93,15.44-15.44,2.94-2.93-15.44,15.44-2.94m.61-.89-16.95,3.22,3.22,16.94,16.95-3.22Z" transform="translate(-184.81 -203.07)"/><path class="cls-3" d="M422.66,267l2.93,15.44-15.44,2.93-2.93-15.44L422.66,267m.61-.9-16.95,3.22,3.22,16.95L426.49,283Z" transform="translate(-184.81 -203.07)"/><path class="cls-3" d="M446,262.53,448.94,278l-15.44,2.94-2.93-15.44L446,262.53m.61-.89-16.95,3.22,3.22,16.94,16.95-3.22Z" transform="translate(-184.81 -203.07)"/><path class="cls-3" d="M469,258.17l2.93,15.44-15.44,2.93-2.93-15.44L469,258.17m.61-.9-16.95,3.22,3.22,16.95,16.95-3.22Z" transform="translate(-184.81 -203.07)"/><path class="cls-3" d="M319.11,309.28,322,324.72l-15.44,2.94-2.93-15.44,15.44-2.94m.61-.89-17,3.22L306,328.56l16.95-3.23Z" transform="translate(-184.81 -203.07)"/><path class="cls-3" d="M340.57,305.2l2.94,15.44-15.44,2.94-2.94-15.44,15.44-2.94m.61-.89-16.94,3.22,3.22,17,16.94-3.23Z" transform="translate(-184.81 -203.07)"/><path class="cls-3" d="M361.66,301.2l2.94,15.44-15.44,2.93-2.94-15.44,15.44-2.93m.61-.9-16.95,3.22,3.23,17,16.94-3.22Z" transform="translate(-184.81 -203.07)"/><path class="cls-3" d="M382.75,297.19l2.93,15.44-15.44,2.93-2.93-15.44,15.44-2.93m.61-.9-16.95,3.22,3.22,16.95,16.95-3.22Z" transform="translate(-184.81 -203.07)"/><path class="cls-3" d="M405,293l2.93,15.44-15.44,2.94-2.93-15.44L405,293m.61-.89-16.95,3.22,3.22,16.95L408.8,309Z" transform="translate(-184.81 -203.07)"/><path class="cls-3" d="M426.81,288.81l2.94,15.44-15.44,2.94-2.94-15.44,15.44-2.94m.61-.89-16.95,3.22,3.23,16.94,16.94-3.22Z" transform="translate(-184.81 -203.07)"/><path class="cls-3" d="M450.16,284.37l2.93,15.44-15.44,2.94-2.93-15.44,15.44-2.94m.61-.89-16.95,3.22L437,303.65,454,300.42Z" transform="translate(-184.81 -203.07)"/><path class="cls-3" d="M473.13,280l2.94,15.44-15.44,2.93-2.94-15.44L473.13,280m.61-.9-16.94,3.22L460,299.28,477,296.06Z" transform="translate(-184.81 -203.07)"/><path class="cls-3" d="M323.26,331.13l2.93,15.44-15.44,2.93-2.93-15.44,15.44-2.93m.61-.9-16.95,3.22,3.22,16.95,16.95-3.22Z" transform="translate(-184.81 -203.07)"/><path class="cls-3" d="M344.72,327.05l2.94,15.44-15.44,2.93L329.28,330l15.44-2.93m.61-.9-16.94,3.22,3.22,16.95,16.94-3.22Z" transform="translate(-184.81 -203.07)"/><path class="cls-3" d="M365.81,323l2.94,15.44-15.44,2.93L350.37,326,365.81,323m.61-.9-16.94,3.22,3.22,16.95,16.94-3.22Z" transform="translate(-184.81 -203.07)"/><path class="cls-3" d="M386.9,319l2.94,15.44L374.4,337.4,371.46,322,386.9,319m.61-.9-16.94,3.22,3.22,16.95,16.94-3.22Z" transform="translate(-184.81 -203.07)"/><path class="cls-3" d="M409.12,314.81l2.94,15.44-15.44,2.93-2.94-15.44,15.44-2.93m.61-.9-17,3.22L396,334.08,413,330.86Z" transform="translate(-184.81 -203.07)"/><path class="cls-3" d="M431,310.65l2.94,15.44L418.46,329l-2.94-15.44L431,310.65m.61-.89L414.63,313l3.22,16.95,16.94-3.23Z" transform="translate(-184.81 -203.07)"/><path class="cls-3" d="M454.31,306.22l2.94,15.44-15.44,2.93-2.94-15.44,15.44-2.93m.61-.9L438,308.54l3.23,16.95,16.94-3.22Z" transform="translate(-184.81 -203.07)"/><path class="cls-3" d="M477.28,301.85l2.94,15.44-15.44,2.93-2.94-15.44,15.44-2.93m.61-.9L461,304.17l3.22,16.95,16.94-3.22Z" transform="translate(-184.81 -203.07)"/><path class="cls-3" d="M327.41,353l2.93,15.44-15.44,2.93L312,355.9,327.41,353m.61-.9-16.95,3.22,3.22,16.95L331.24,369Z" transform="translate(-184.81 -203.07)"/><path class="cls-3" d="M348.88,348.89l2.93,15.44-15.44,2.93-2.93-15.44,15.44-2.93m.61-.9-16.95,3.22,3.22,17,16.95-3.22Z" transform="translate(-184.81 -203.07)"/><path class="cls-3" d="M370,344.88l2.94,15.44-15.44,2.94-2.94-15.44L370,344.88m.61-.9-16.94,3.23,3.22,16.94,16.95-3.22Z" transform="translate(-184.81 -203.07)"/><path class="cls-3" d="M391.05,340.87,394,356.31l-15.44,2.94-2.94-15.44,15.44-2.94m.61-.89-16.94,3.22,3.22,16.94,16.94-3.22Z" transform="translate(-184.81 -203.07)"/><path class="cls-3" d="M413.27,336.65l2.94,15.44L400.77,355l-2.94-15.44,15.44-2.93m.61-.9L396.94,339l3.22,16.95,16.94-3.22Z" transform="translate(-184.81 -203.07)"/><path class="cls-3" d="M435.11,332.5l2.94,15.44-15.44,2.93-2.94-15.44,15.44-2.93m.61-.9-16.94,3.22L422,351.77,439,348.55Z" transform="translate(-184.81 -203.07)"/><path class="cls-3" d="M458.46,328.06l2.94,15.44L446,346.43,443,331l15.44-2.93m.61-.9-16.94,3.22,3.22,16.95,16.94-3.22Z" transform="translate(-184.81 -203.07)"/><path class="cls-3" d="M481.44,323.69l2.93,15.44-15.44,2.94L466,326.63l15.44-2.94m.61-.89L465.1,326,468.32,343l16.95-3.22Z" transform="translate(-184.81 -203.07)"/><path class="cls-3" d="M331.56,374.81l2.94,15.44-15.44,2.94-2.94-15.44,15.44-2.94m.61-.89-16.94,3.22,3.22,16.94,16.94-3.22Z" transform="translate(-184.81 -203.07)"/><path class="cls-3" d="M353,370.73,356,386.17l-15.44,2.94-2.93-15.44L353,370.73m.61-.9-16.95,3.23L339.91,390l16.95-3.22Z" transform="translate(-184.81 -203.07)"/><path class="cls-3" d="M374.12,366.72l2.93,15.44-15.44,2.94-2.93-15.44,15.44-2.94m.61-.89-17,3.22L361,386,378,382.77Z" transform="translate(-184.81 -203.07)"/><path class="cls-3" d="M395.21,362.71l2.93,15.44-15.44,2.94-2.93-15.44,15.44-2.94m.61-.89L378.87,365,382.09,382l17-3.23Z" transform="translate(-184.81 -203.07)"/><path class="cls-3" d="M417.42,358.49l2.94,15.44-15.44,2.94L402,361.43l15.44-2.94m.61-.9-16.94,3.23,3.22,16.94,16.95-3.22Z" transform="translate(-184.81 -203.07)"/><path class="cls-3" d="M439.27,354.34l2.93,15.44-15.44,2.93-2.93-15.44,15.44-2.93m.61-.9-16.95,3.22,3.22,16.95,17-3.22Z" transform="translate(-184.81 -203.07)"/><path class="cls-3" d="M462.62,349.9l2.93,15.44-15.44,2.94-2.94-15.44,15.45-2.94m.61-.9-17,3.23,3.22,16.94L466.45,366Z" transform="translate(-184.81 -203.07)"/><path class="cls-3" d="M485.59,345.53,488.52,361l-15.44,2.94-2.93-15.44,15.44-2.94m.61-.89-16.95,3.22,3.22,16.95,16.95-3.23Z" transform="translate(-184.81 -203.07)"/><path class="cls-3" d="M335.71,396.65l2.94,15.44L323.21,415l-2.94-15.44,15.44-2.94m.61-.89L319.38,399l3.22,16.95,16.94-3.23Z" transform="translate(-184.81 -203.07)"/><path class="cls-3" d="M357.18,392.57,360.11,408,344.67,411l-2.93-15.44,15.44-2.94m.61-.89-17,3.22,3.22,16.94L361,408.62Z" transform="translate(-184.81 -203.07)"/><path class="cls-3" d="M378.27,388.56,381.2,404l-15.44,2.93-2.93-15.44,15.44-2.94m.61-.89-16.95,3.22,3.22,16.95,17-3.22Z" transform="translate(-184.81 -203.07)"/><path class="cls-3" d="M399.36,384.56,402.29,400l-15.44,2.93-2.93-15.44,15.44-2.93m.61-.9-17,3.22,3.22,16.95,16.95-3.22Z" transform="translate(-184.81 -203.07)"/><path class="cls-3" d="M421.58,380.33l2.93,15.44-15.44,2.94-2.93-15.44,15.44-2.94m.61-.89-16.95,3.22,3.22,16.94,17-3.22Z" transform="translate(-184.81 -203.07)"/><path class="cls-3" d="M443.42,376.18l2.93,15.44-15.44,2.94L428,379.12l15.44-2.94m.61-.9-16.95,3.23,3.22,16.94,16.95-3.22Z" transform="translate(-184.81 -203.07)"/><path class="cls-3" d="M466.77,371.74l2.93,15.44-15.44,2.94-2.93-15.44,15.44-2.94m.61-.89-16.95,3.22L453.65,391l17-3.22Z" transform="translate(-184.81 -203.07)"/><path class="cls-3" d="M489.74,367.38l2.93,15.44-15.44,2.93-2.93-15.44,15.44-2.93m.61-.9-17,3.22,3.22,16.95,16.95-3.22Z" transform="translate(-184.81 -203.07)"/><path class="cls-3" d="M339.87,418.5l2.93,15.44-15.44,2.93-2.93-15.44,15.44-2.93m.61-.9-17,3.22,3.22,16.95,16.95-3.22Z" transform="translate(-184.81 -203.07)"/><path class="cls-3" d="M361.33,414.42l2.94,15.44-15.44,2.93-2.94-15.44,15.44-2.93m.61-.9L345,416.74l3.23,16.95,16.94-3.22Z" transform="translate(-184.81 -203.07)"/><path class="cls-3" d="M382.42,410.41l2.93,15.44-15.44,2.93L367,413.34l15.44-2.93m.61-.9-16.95,3.22,3.22,16.95,16.95-3.22Z" transform="translate(-184.81 -203.07)"/><path class="cls-3" d="M403.51,406.4l2.93,15.44L391,424.77l-2.93-15.44,15.44-2.93m.61-.9-16.95,3.22,3.22,16.95,16.95-3.22Z" transform="translate(-184.81 -203.07)"/><path class="cls-3" d="M425.73,402.18l2.93,15.44-15.44,2.93-2.93-15.44,15.44-2.93m.61-.9-16.95,3.22,3.22,16.95,16.95-3.22Z" transform="translate(-184.81 -203.07)"/><path class="cls-3" d="M447.57,398l2.93,15.44-15.44,2.94L432.13,401,447.57,398m.61-.89-16.95,3.22,3.22,16.94,16.95-3.22Z" transform="translate(-184.81 -203.07)"/><path class="cls-3" d="M470.92,393.59,473.85,409,458.41,412l-2.93-15.44,15.44-2.93m.61-.9-16.95,3.22,3.22,16.95,16.95-3.22Z" transform="translate(-184.81 -203.07)"/><path class="cls-3" d="M493.89,389.22l2.94,15.44-15.44,2.93-2.94-15.44,15.44-2.93m.61-.9-16.95,3.22,3.23,16.95,16.94-3.22Z" transform="translate(-184.81 -203.07)"/><path class="cls-3" d="M299.17,247.52a6.9,6.9,0,1,1-5.49,8.07h0a6.9,6.9,0,0,1,5.49-8.07m-.14-.75a7.66,7.66,0,1,0,9,6.1A7.66,7.66,0,0,0,299,246.77Z" transform="translate(-184.81 -203.07)"/><path class="cls-3" d="M320.26,243.51a6.9,6.9,0,1,1-5.49,8.07h0a6.91,6.91,0,0,1,5.49-8.07m-.14-.75a7.66,7.66,0,1,0,9,6.1A7.66,7.66,0,0,0,320.12,242.76Z" transform="translate(-184.81 -203.07)"/><path class="cls-3" d="M341.35,239.5a6.9,6.9,0,1,1-5.49,8.07h0a6.91,6.91,0,0,1,5.49-8.07m-.14-.75a7.66,7.66,0,1,0,9,6.1A7.66,7.66,0,0,0,341.21,238.75Z" transform="translate(-184.81 -203.07)"/><path class="cls-3" d="M362.82,235.42a6.9,6.9,0,1,1-5.49,8.07h0a6.89,6.89,0,0,1,5.49-8.07m-.15-.75a7.67,7.67,0,1,0,9,6.1A7.66,7.66,0,0,0,362.67,234.67Z" transform="translate(-184.81 -203.07)"/><path class="cls-3" d="M384.66,231.27a6.9,6.9,0,1,1-5.49,8.07h0a6.9,6.9,0,0,1,5.49-8.07m-.15-.75a7.67,7.67,0,1,0,9,6.1A7.67,7.67,0,0,0,384.51,230.52Z" transform="translate(-184.81 -203.07)"/><path class="cls-3" d="M407.25,227a6.9,6.9,0,1,1-5.49,8.06h0a6.9,6.9,0,0,1,5.49-8.06m-.14-.76a7.67,7.67,0,1,0,9,6.1A7.67,7.67,0,0,0,407.11,226.22Z" transform="translate(-184.81 -203.07)"/><path class="cls-3" d="M429.85,222.68a6.9,6.9,0,1,1-5.49,8.07h0a6.9,6.9,0,0,1,5.49-8.07m-.14-.75a7.66,7.66,0,1,0,9,6.1A7.66,7.66,0,0,0,429.71,221.93Z" transform="translate(-184.81 -203.07)"/><path class="cls-3" d="M452.82,218.31a6.9,6.9,0,1,1-5.49,8.07h0a6.91,6.91,0,0,1,5.49-8.07m-.14-.75a7.67,7.67,0,1,0,9,6.1A7.67,7.67,0,0,0,452.68,217.56Z" transform="translate(-184.81 -203.07)"/><path class="cls-3" d="M477.4,234.71a6.9,6.9,0,1,1-5.49,8.07,6.91,6.91,0,0,1,5.49-8.07m-.14-.75a7.66,7.66,0,1,0,9,6.1A7.66,7.66,0,0,0,477.26,234Z" transform="translate(-184.81 -203.07)"/><path class="cls-3" d="M481.55,256.56a6.9,6.9,0,1,1-5.49,8.06,6.89,6.89,0,0,1,5.49-8.06m-.14-.76a7.67,7.67,0,1,0,9,6.1A7.67,7.67,0,0,0,481.41,255.8Z" transform="translate(-184.81 -203.07)"/><path class="cls-3" d="M485.7,278.4a6.9,6.9,0,1,1-5.49,8.07h0a6.9,6.9,0,0,1,5.49-8.07m-.14-.75a7.66,7.66,0,1,0,9,6.1A7.66,7.66,0,0,0,485.56,277.65Z" transform="translate(-184.81 -203.07)"/><path class="cls-3" d="M489.85,300.24a6.9,6.9,0,1,1-5.49,8.07,6.9,6.9,0,0,1,5.49-8.07m-.14-.75a7.66,7.66,0,1,0,9,6.1A7.66,7.66,0,0,0,489.71,299.49Z" transform="translate(-184.81 -203.07)"/><path class="cls-3" d="M494,322.08a6.9,6.9,0,1,1-5.49,8.07,6.9,6.9,0,0,1,5.49-8.07m-.15-.75a7.67,7.67,0,1,0,9,6.1A7.66,7.66,0,0,0,493.86,321.33Z" transform="translate(-184.81 -203.07)"/><path class="cls-3" d="M498.16,343.93a6.9,6.9,0,1,1-5.49,8.06,6.88,6.88,0,0,1,5.49-8.06m-.15-.76a7.67,7.67,0,1,0,9,6.1A7.67,7.67,0,0,0,498,343.17Z" transform="translate(-184.81 -203.07)"/><path class="cls-3" d="M502.31,365.77a6.9,6.9,0,1,1-5.49,8.06,6.9,6.9,0,0,1,5.49-8.06m-.14-.76a7.67,7.67,0,1,0,9,6.1A7.67,7.67,0,0,0,502.17,365Z" transform="translate(-184.81 -203.07)"/><path class="cls-3" d="M506.46,387.61a6.9,6.9,0,1,1-5.49,8.07,6.9,6.9,0,0,1,5.49-8.07m-.14-.75a7.66,7.66,0,1,0,9,6.1A7.66,7.66,0,0,0,506.32,386.86Z" transform="translate(-184.81 -203.07)"/><path class="cls-3" d="M490.13,412.56a6.9,6.9,0,1,1-5.49,8.07,6.9,6.9,0,0,1,5.49-8.07m-.14-.75a7.66,7.66,0,1,0,9,6.1A7.66,7.66,0,0,0,490,411.81Z" transform="translate(-184.81 -203.07)"/><path class="cls-3" d="M467.16,416.93a6.9,6.9,0,1,1-5.49,8.07,6.9,6.9,0,0,1,5.49-8.07m-.14-.75a7.66,7.66,0,1,0,9,6.1A7.66,7.66,0,0,0,467,416.18Z" transform="translate(-184.81 -203.07)"/><path class="cls-3" d="M444.19,421.3a6.9,6.9,0,1,1-5.49,8.06,6.9,6.9,0,0,1,5.49-8.06m-.14-.76a7.67,7.67,0,1,0,9,6.1A7.67,7.67,0,0,0,444.05,420.54Z" transform="translate(-184.81 -203.07)"/><path class="cls-3" d="M422,425.52a6.9,6.9,0,1,1-5.49,8.07,6.91,6.91,0,0,1,5.49-8.07m-.14-.75a7.66,7.66,0,1,0,9,6.1A7.66,7.66,0,0,0,421.83,424.77Z" transform="translate(-184.81 -203.07)"/><path class="cls-3" d="M400.13,429.67a6.9,6.9,0,1,1-5.49,8.07,6.91,6.91,0,0,1,5.49-8.07m-.14-.75a7.66,7.66,0,1,0,9,6.1A7.66,7.66,0,0,0,400,428.92Z" transform="translate(-184.81 -203.07)"/><path class="cls-3" d="M378.66,433.75a6.9,6.9,0,1,1-5.49,8.07,6.9,6.9,0,0,1,5.49-8.07m-.14-.75a7.66,7.66,0,1,0,9,6.1A7.66,7.66,0,0,0,378.52,433Z" transform="translate(-184.81 -203.07)"/><path class="cls-3" d="M357.57,437.76a6.9,6.9,0,1,1-5.49,8.07,6.9,6.9,0,0,1,5.49-8.07m-.14-.75a7.66,7.66,0,1,0,9,6.1A7.66,7.66,0,0,0,357.43,437Z" transform="translate(-184.81 -203.07)"/><path class="cls-3" d="M336.49,441.77a6.9,6.9,0,1,1-5.49,8.07,6.9,6.9,0,0,1,5.49-8.07m-.15-.75a7.67,7.67,0,1,0,9,6.1A7.66,7.66,0,0,0,336.34,441Z" transform="translate(-184.81 -203.07)"/><path class="cls-3" d="M311.76,424.62a6.9,6.9,0,1,1-5.49,8.06,6.9,6.9,0,0,1,5.49-8.06m-.14-.76a7.67,7.67,0,1,0,9,6.1A7.68,7.68,0,0,0,311.62,423.86Z" transform="translate(-184.81 -203.07)"/><path class="cls-3" d="M307.61,402.78a6.9,6.9,0,1,1-5.49,8.06,6.89,6.89,0,0,1,5.49-8.06m-.14-.76a7.67,7.67,0,1,0,9,6.1A7.67,7.67,0,0,0,307.47,402Z" transform="translate(-184.81 -203.07)"/><path class="cls-3" d="M303.46,380.93A6.9,6.9,0,1,1,298,389a6.91,6.91,0,0,1,5.49-8.07m-.14-.75a7.66,7.66,0,1,0,9,6.1A7.66,7.66,0,0,0,303.32,380.18Z" transform="translate(-184.81 -203.07)"/><path class="cls-3" d="M299.31,359.09a6.9,6.9,0,1,1-5.49,8.07,6.91,6.91,0,0,1,5.49-8.07m-.14-.75a7.66,7.66,0,1,0,9,6.1A7.66,7.66,0,0,0,299.17,358.34Z" transform="translate(-184.81 -203.07)"/><path class="cls-3" d="M295.16,337.25a6.9,6.9,0,1,1-5.49,8.07,6.9,6.9,0,0,1,5.49-8.07m-.15-.75a7.67,7.67,0,1,0,9,6.1A7.66,7.66,0,0,0,295,336.5Z" transform="translate(-184.81 -203.07)"/><path class="cls-3" d="M291,315.41a6.9,6.9,0,1,1-5.5,8.06h0a6.9,6.9,0,0,1,5.5-8.06m-.15-.76a7.67,7.67,0,1,0,9,6.1A7.67,7.67,0,0,0,290.86,314.65Z" transform="translate(-184.81 -203.07)"/><path class="cls-3" d="M286.85,293.56a6.9,6.9,0,1,1-5.49,8.07,6.9,6.9,0,0,1,5.49-8.07m-.14-.75a7.66,7.66,0,1,0,9,6.1A7.66,7.66,0,0,0,286.71,292.81Z" transform="translate(-184.81 -203.07)"/><path class="cls-3" d="M282.7,271.72a6.9,6.9,0,1,1-5.49,8.07,6.9,6.9,0,0,1,5.49-8.07m-.14-.75a7.66,7.66,0,1,0,9,6.1A7.66,7.66,0,0,0,282.56,271Z" transform="translate(-184.81 -203.07)"/><path class="cls-3" d="M279.55,255.15a3.07,3.07,0,1,1-2.44,3.59,3.08,3.08,0,0,1,2.44-3.59m-.14-.75a3.83,3.83,0,1,0,4.48,3A3.83,3.83,0,0,0,279.41,254.4Z" transform="translate(-184.81 -203.07)"/></g><g id="图层_1" data-name="图层 1"><polygon class="cls-4" points="40.69 353.63 40.69 165.61 214.69 147.49 214.69 443.2 40.69 353.63"/><path d="M399,351.11V645.44L226,556.39V369.13l173-18m1-1.11L225,368.23V557l175,90.08V350Z" transform="translate(-184.81 -203.07)"/><polygon class="cls-4" points="215.69 147.49 389.69 165.61 389.69 353.63 215.69 443.2 215.69 147.49"/><path d="M401,351.11l173,18V556.39L401,645.44V351.11M400,350V647.08L575,557V368.23L400,350Z" transform="translate(-184.81 -203.07)"/><polyline class="cls-5" points="40.19 165.16 0.93 219.08 143.08 230.93 214.69 146.43 255.19 230.93 432.98 217.19 390.19 165.16"/><path class="cls-5" d="M835.5,114.5" transform="translate(-184.81 -203.07)"/><path class="cls-5" d="M890.5,141.5" transform="translate(-184.81 -203.07)"/></g></svg>